<svg xmlns="http://www.w3.org/2000/svg" viewBox="0 0 172.352 172.352"><path d="M86.176 172.352C38.607 172.352 0 133.745 0 86.176S38.607 0 86.176 0s86.176 38.607 86.176 86.176-38.607 86.176-86.176 86.176m12.668-86.176c0-6.98-5.688-12.668-12.668-12.668s-12.668 5.774-12.668 12.668c0 6.98 5.601 12.668 12.668 12.668s12.668-5.688 12.668-12.668"/><path stroke="#1b1b1c" stroke-miterlimit="10" stroke-width=".862" d="M86.176 63.512c-12.495 0-22.664 10.083-22.664 22.664s10.083 22.664 22.664 22.664 22.664-10.083 22.664-22.664-10.169-22.664-22.664-22.664zm0 34.556c-6.98 0-12.668-5.601-12.668-12.668s5.601-12.668 12.668-12.668S98.844 78.42 98.844 85.4a12.633 12.633 0 0 1-12.668 12.668z"/><path fill="#a2a3a3" d="M86.176 1.379c-46.793 0-84.797 38.004-84.797 84.797s38.004 84.797 84.797 84.797 84.797-38.004 84.797-84.797S132.969 1.379 86.176 1.379m0 99.223a15.16 15.16 0 0 1-15.201-15.201c0-8.48 6.722-15.201 15.201-15.201s15.201 6.825 15.201 15.201a15.16 15.16 0 0 1-15.201 15.201"/><path fill="#adb2b2" d="M86.176 5.084c-44.811 0-81.091 36.28-81.091 81.091 0 18.528 6.205 35.677 16.718 49.293 14.908 19.39 38.09 31.799 64.373 31.799s49.551-12.495 64.373-31.799c10.513-13.616 16.718-30.765 16.718-49.293 0-44.811-36.28-81.091-81.091-81.091m0 95.518a15.16 15.16 0 0 1-15.201-15.201c0-8.48 6.722-15.201 15.201-15.201s15.201 6.825 15.201 15.201a15.16 15.16 0 0 1-15.201 15.201"/><path fill="#fff" d="M134.039 99.93h-.596v.49h.665v.148h-.862V99.21h.828v.147h-.63v.43h.596v.143zm.324.637v-1.358h.216l.492.687c.113.159.202.303.276.442l.004-.002a5 5 0 0 1-.022-.558v-.569h.187v1.358h-.2l-.487-.689a4 4 0 0 1-.286-.453l-.007.002c.011.171.016.334.016.56v.581zm1.787-1.21h-.466v-.149h1.135v.149h-.468v1.21h-.2v-1.21zm1.632.573h-.596v.49h.665v.148h-.862V99.21h.828v.147h-.63v.43h.596v.143zm.324-.704c.1-.018.243-.027.38-.027.211 0 .348.034.444.11.077.061.12.153.12.258 0 .18-.127.298-.289.347v.006c.118.036.19.133.226.274.05.19.086.321.118.373h-.205a1.7 1.7 0 0 1-.102-.324c-.046-.188-.128-.258-.308-.264h-.187v.588h-.197zm.198.62h.203c.211 0 .346-.104.346-.258 0-.176-.144-.252-.353-.254a1 1 0 0 0-.196.016zm1.337-.489h-.466v-.149h1.135v.149h-.468v1.21h-.2v-1.21zm.915.783-.159.427h-.205l.521-1.358h.239l.523 1.358h-.211l-.164-.427zm.503-.138-.15-.391a3 3 0 0 1-.08-.247h-.005q-.032.121-.077.245l-.15.393zm.837-.793v1.358h-.197v-1.358zm.346 1.358v-1.358h.216l.492.687c.113.159.202.303.276.442l.004-.002a5 5 0 0 1-.022-.558v-.569h.187v1.358h-.2l-.487-.689a4 4 0 0 1-.286-.453l-.007.002c.011.171.016.334.016.56v.581zm2.788-.596a9 9 0 0 1-.022-.587H145a7 7 0 0 1-.193.516l-.271.66h-.151l-.247-.647a6 6 0 0 1-.178-.529h-.005c-.004.17-.016.398-.029.601l-.041.582h-.189l.107-1.358h.253l.262.657q.096.249.154.457h.007c.038-.137.093-.285.161-.457l.274-.657h.252l.096 1.358h-.194zm1.329-.041h-.596v.49h.665v.148h-.862V99.21h.828v.147h-.63v.43h.596v.143zm.324.637v-1.358h.216l.492.687c.113.159.202.303.276.442l.004-.002a5 5 0 0 1-.022-.558v-.569h.187v1.358h-.2l-.487-.689a4 4 0 0 1-.286-.453l-.007.002c.011.171.016.334.016.56v.581zm1.787-1.21h-.466v-.149h1.135v.149h-.468v1.21h-.2v-1.21zM150.247 100.008h-.191v-.068h.465v.068h-.193v.559h-.082v-.559zm.873.284c-.005-.088-.011-.193-.01-.271h-.003a4 4 0 0 1-.079.238l-.11.304h-.062l-.102-.299a3 3 0 0 1-.072-.243h-.002c-.002.078-.007.183-.012.278l-.018.269h-.077l.044-.627h.104l.107.303q.04.115.064.212h.003a2 2 0 0 1 .066-.212l.111-.303h.104l.039.627h-.079zM134.776 98.813a1.8 1.8 0 0 1-.601.087c-.641 0-1.124-.326-1.124-.927 0-.573.483-.962 1.188-.962.283 0 .462.049.539.081l-.07.194a1.3 1.3 0 0 0-.459-.076c-.533 0-.887.275-.887.755 0 .449.321.737.874.737.179 0 .362-.03.48-.076zm2.24-.876c0 .63-.475.966-1.055.966-.601 0-1.023-.375-1.023-.93 0-.582.45-.962 1.056-.962.621 0 1.022.383 1.022.926m-1.765.031c0 .391.264.742.726.742.465 0 .729-.345.729-.761 0-.364-.237-.745-.726-.745-.486-.001-.729.361-.729.764m4.062.1a11 11 0 0 1-.034-.792h-.01a9 9 0 0 1-.287.696l-.402.889h-.222l-.368-.873a7 7 0 0 1-.263-.712h-.007c-.007.229-.023.536-.044.81l-.061.786h-.28l.159-1.832h.374l.388.886c.095.226.172.427.23.617h.01c.058-.185.139-.385.239-.617l.406-.886h.374l.142 1.832h-.286zm.795-1.005a4 4 0 0 1 .564-.035c.29 0 .503.054.638.151a.45.45 0 0 1 .198.383.49.49 0 0 1-.175.392c-.155.133-.409.201-.695.201q-.133.002-.237-.017v.734h-.294v-1.809zm.294.883q.096.02.242.019c.355 0 .571-.139.571-.391 0-.242-.212-.36-.537-.36-.128 0-.226.009-.277.02zm1.794-.906v1.085c0 .41.226.584.53.584.337 0 .553-.179.553-.584V97.04h.297v1.068c0 .563-.367.795-.86.795-.466 0-.817-.215-.817-.783v-1.08zm2.321.201h-.691v-.201h1.684v.201h-.696v1.631h-.297zm2.422.772h-.884v.661h.985v.198h-1.279V97.04h1.228v.198h-.934v.58h.884zm.481-.949c.149-.024.362-.037.564-.037.314 0 .516.046.658.149a.42.42 0 0 1 .179.348c0 .242-.189.403-.428.468V98c.175.049.28.18.334.369.074.256.128.433.175.503h-.303c-.037-.052-.088-.209-.152-.438-.067-.252-.189-.348-.455-.356h-.277v.794h-.294v-1.808zm.294.835h.3c.314 0 .513-.139.513-.348 0-.237-.212-.339-.523-.342-.142 0-.243.011-.29.021zM133.063 73.199h.265c.217.395.731.819 1.456.819.379 0 .785-.114.785-.392 0-.205-.179-.309-.584-.361l-.552-.069c-.979-.121-1.369-.454-1.369-.808 0-.534.666-.791 1.434-.791q.518-.001.947.191l.292-.17h.233l.07.916h-.271c-.2-.371-.671-.749-1.342-.749-.346 0-.747.107-.747.357 0 .149.124.284.601.347l.671.09c.893.121 1.267.389 1.267.819 0 .423-.498.808-1.413.808-.438 0-.823-.08-1.12-.232l-.341.215h-.238zm5.592-1.603c1.142 0 2.041.562 2.041 1.304s-.898 1.304-2.041 1.304c-1.147 0-2.046-.562-2.046-1.304s.899-1.304 2.046-1.304m0 2.439c.65 0 .969-.382.969-1.134 0-.753-.319-1.134-.969-1.134-.654 0-.974.382-.974 1.134s.319 1.134.974 1.134m2.279-2.387h1.396l2.095 1.596v-.975c0-.323-.092-.42-.596-.434v-.187h1.559v.187c-.503.014-.595.111-.595.434v1.918h-.352l-2.533-1.953h-.011v1.297c0 .323.092.42.596.434v.187h-1.559v-.187c.503-.014.595-.111.595-.434v-1.509c-.135-.125-.346-.187-.595-.187z"/><path fill="#fff" d="M145.351 71.648h1.937v.187h-.119c-.227 0-.287.021-.287.08 0 .031.027.066.103.142l.709.735.52-.604c.076-.09.103-.135.103-.173 0-.146-.249-.18-.514-.18v-.187h1.586v.187c-.39.035-.552.135-.823.43l-.714.784v.742c0 .132.033.173.325.173h.287v.187h-2.17v-.187h.271c.292 0 .324-.042.324-.173v-.701l-1.039-1.065c-.157-.16-.216-.191-.498-.191v-.186z"/><linearGradient id="a" x1="15201.842" x2="15285.2" y1="15594.378" y2="15594.378" gradientTransform="matrix(.25 0 0 .25 -3669.655 -3812.986)" gradientUnits="userSpaceOnUse"><stop offset="0" stop-color="#ef4e26"/><stop offset=".5" stop-color="#e5e543"/><stop offset="1" stop-color="#ef4e26"/></linearGradient><path fill="url(#a)" d="m141.203 75.199 10.441 10.442-10.376 10.376-10.463-10.463z"/><linearGradient id="b" x1="30154.832" x2="30238.19" y1="31204.57" y2="31204.57" gradientTransform="translate(-3631.682 -3818.45)scale(.125)" gradientUnits="userSpaceOnUse"><stop offset="0" stop-color="#ef4e26"/><stop offset=".4" stop-color="#e5e543"/><stop offset="1" stop-color="#fbae1f"/></linearGradient><path fill="url(#b)" d="m142.903 87.325-5.232-5.232 5.199-5.177"/><linearGradient id="c" x1="30226.695" x2="30310.059" y1="31042.121" y2="31042.121" gradientTransform="translate(-3643.848 -3790.95)scale(.125)" gradientUnits="userSpaceOnUse"><stop offset="0" stop-color="#fbae1f"/><stop offset=".6" stop-color="#e5e543"/><stop offset="1" stop-color="#ef4e26"/></linearGradient><path fill="url(#c)" d="m139.688 84.11 5.22 5.22-5.187 5.189"/><path fill="#fff" d="M110.296 125.146h1.699c.203 0 .363.17.363.363v6.693c0 .193-.17.363-.363.363h-1.699a.366.366 0 0 1-.363-.363v-6.693a.36.36 0 0 1 .363-.363m-1.646-2.69h-1.361a.367.367 0 0 0-.367.367v2.327h-3.04c-.245 0-.527.278-.527.527v6.362c0 .249.285.527.527.527l4.768-.003a.36.36 0 0 0 .367-.36v-9.38a.367.367 0 0 0-.367-.367m-1.476 8.683c0 .19-.173.363-.363.363h-1.116a.37.37 0 0 1-.363-.363v-4.369a.36.36 0 0 1 .363-.363h1.116c.203 0 .363.173.363.363zm8.002-3.25 3.037-.003c.203 0 .367.281.367.367v3.947c0 .16-.206.367-.367.367h-4.402c-.056 0-.363-.16-.363-.363v-.9a.36.36 0 0 1 .363-.363h3.04v-1.116h-3.04c-.062 0-.363-.16-.363-.363v-3.95a.36.36 0 0 1 .363-.363h4.179c.17 0 .363.2.363.363v.9c0 .151-.213.363-.363.363h-2.815zm9.422 1.626v2.687c0 .167-.196.363-.363.363h-4.458c-.069 0-.363-.16-.363-.363v-6.693a.36.36 0 0 1 .363-.363h4.458c.203 0 .363.298.363.363v2.769h-1.669v-1.604s-.16-.363-.363-.363h-1.116a.36.36 0 0 0-.363.363v4.369c0 .2.226.363.363.363h1.116c.17 0 .363-.193.363-.363v-1.528zm-.92-5.236h.501v-1.378h.471v-.396h-1.44v.396h.468zm-.909-.691h-.514v.046c0 .19-.062.249-.259.249-.242 0-.259-.088-.259-.353v-.291c0-.265.016-.337.259-.337.183 0 .259.043.259.219v.029h.501v-.029c0-.484-.183-.645-.697-.645h-.137c-.53 0-.697.19-.697.733v.367c0 .527.167.746.697.746h.167c.468 0 .681-.203.681-.674v-.06zm-6.899-1.083-.377 1.276-.379-1.276h-.73v1.774h.487v-1.319l.38 1.319h.484l.38-1.306v1.306h.468v-1.774zm4.444 0h-.76l-.53 1.774h.53l.092-.308h.576l.075.308h.53zm-.38 1.1h-.196l.18-.733h.032l.18.733zm-1.849-1.1h-.864v1.774h.501v-.468h.364c.468 0 .681-.164.681-.602v-.118c-.001-.442-.214-.586-.682-.586m.18.687c0 .177-.043.223-.196.223h-.347v-.514h.318c.167 0 .226.043.226.19zm-5.154-.717h-.242c-.53 0-.697.19-.697.733v.367c0 .527.167.746.697.746h.242c.53 0 .713-.219.713-.746v-.367c0-.543-.183-.733-.713-.733m.199 1.054c0 .281-.016.353-.275.353h-.092c-.255 0-.272-.072-.272-.353v-.291c0-.265.016-.337.272-.337h.092c.259 0 .275.072.275.337zm-1.639.059h-.514v.046c0 .19-.062.249-.259.249-.242 0-.259-.088-.259-.353v-.291c0-.265.016-.337.259-.337.183 0 .259.043.259.219v.029h.501v-.029c0-.484-.183-.645-.7-.645h-.134c-.53 0-.697.19-.697.733v.367c0 .527.167.746.697.746h.167c.468 0 .681-.203.681-.674v-.06z"/><path fill="#58595b" d="M19.3 74.37h25.759v23.612H19.3z"/><g fill-rule="evenodd" clip-rule="evenodd"><path fill="#00a99d" d="m31.121 86.282-3.014-.904-3.974 1.425-.685.274 2.878.904zm4.933 1.48-4.302 1.507-.713.219-2.932-.904 4.878-1.754zm1.863.548-5.014 1.809 2.822.931 4.632-1.644.548-.247z"/><path fill="#f2c102" d="m35.725 91.05-2.822-.931-2.823 1.014 2.878.904zm-7.618-2.466 2.932.904c-2.466.822-4.851.904-7.18.274-1.233-.329-1.918-.767-1.973-1.37-.027-.411.521-.877 1.562-1.315l2.877.904-.74.274a3.4 3.4 0 0 0-.548.274c-.137.137-.082.274.137.411l1.096.137 1.151-.219z"/><path fill="#326cb2" d="m29.614 84.885 2.96.849-1.453.548-3.014-.904zm3.371 1.945c1.425-.548 2.795-.822 4.111-.849a9.9 9.9 0 0 1 3.617.493c1.096.356 1.699.767 1.726 1.288.055.548-.438.987-1.534 1.398l-2.987-.849 1.014-.384c.411-.137.603-.274.548-.438-.055-.137-.192-.247-.493-.274l-1.014-.055-.767.192-1.151.411z"/><path fill="#dc0029" d="M29.559 76.143v14.853l3.398 1.041V79.623c0-.329.027-.548.164-.685.137-.192.274-.219.466-.137.466.137.685.548.685 1.233v4.988c1.042.493 1.973.548 2.658.027.713-.493 1.096-1.37 1.096-2.685 0-1.37-.274-2.411-.877-3.097-.548-.74-1.507-1.343-2.932-1.836-1.862-.603-3.425-1.042-4.658-1.288"/></g><g fill="#fff"><path fill-rule="evenodd" d="M24.33 93.105h-1.11v2.636h.41v-2.34h.542c.312 0 .319.414.319.414v.256c-.017.428-.221.376-.221.376h-.375v.291h.417c.6 0 .601-.635.601-.635v-.415c0-.59-.583-.583-.583-.583" clip-rule="evenodd"/><path d="M25.256 93.105h.416v2.647h-.416zm1.042.587h.754s.617-.056.617.568v1.487h-1.014s-.628-.007-.603-.621V95s.025-.535.535-.535h.384v.23h-.231s-.239.01-.239.333.116.442.365.442h.389v-1.171s.021-.34-.386-.34h-.572v-.267zm7.113 0h.754s.617-.056.617.568v1.487h-1.014s-.628-.007-.603-.621V95s.025-.535.535-.535h.384v.23h-.232s-.238.01-.238.333.116.442.365.442h.389v-1.171s.021-.34-.386-.34h-.572v-.267zm-5.53-.014h.484l.542 1.389.558-1.389h.394l-1.289 3.026h-.358l.448-1.032zm2.278 1.824h.694s.323.024.323-.418v-.234s-.025-.272-.272-.272h-.3s-.565.012-.547-.643v-.249s.028-.561.638-.561h.726v.263h-.635s-.324-.014-.324.325v.152s.021.348.348.348h.327s.438-.001.438.557v.428s-.032.559-.559.559h-.858v-.255zm2.613.246h-.463s-.288.035-.288-.459v-1.922h.445v.326h.417v.288h-.459v1.203s-.021.316.281.316h.067zm3.178.007h-.463s-.288.035-.288-.459v-1.922h.445v.326h.417v.288h-.459v1.203s-.021.315.281.315h.067zm.496-2.687h.41v.416h-.41zm0 .616h.41v2.041h-.41zm1.846.007h-.2a.8.8 0 0 0-.8.8v.484a.8.8 0 0 0 .8.8h.2a.8.8 0 0 0 .8-.8v-.484a.8.8 0 0 0-.8-.8m.334 1.384a.43.43 0 0 1-.434.427.43.43 0 0 1-.434-.427v-.683a.43.43 0 0 1 .434-.427.43.43 0 0 1 .434.427zm.93-1.384h.968s.641-.037.641.641v1.414h-.425v-1.384s.042-.366-.366-.366h-.408v1.728h-.41zm2.273 2.042v-.564h-.215v-.099h.541v.098h-.216v.564h-.11zm.4 0v-.663h.163l.168.529.162-.529h.159v.663h-.101v-.556l-.171.556h-.1l-.178-.564v.564z"/></g></svg>